<svg width="154" height="46" viewBox="0 0 154 46" fill="none" xmlns="http://www.w3.org/2000/svg">
<path d="M17.6709 21.3002C17.6709 21.0418 17.6709 20.7835 17.6709 20.4513C18.8567 19.8403 20.0753 19.2087 21.3517 18.5526C21.3517 16.4242 21.3517 14.2712 21.3517 12.069C22.7639 12.069 24.1184 12.069 25.5512 12.069C25.5512 13.4962 25.5512 14.9274 25.5512 16.4652C26.2923 16.0674 26.9305 15.7271 27.5687 15.3826C30.0225 14.058 32.4764 12.7416 34.9261 11.4088C37.5364 9.98987 40.1344 8.55045 42.7447 7.13153C44.9021 5.95867 47.0678 4.80631 49.2293 3.64165C50.2215 3.10853 51.2097 2.55901 52.2101 2.03819C52.4613 1.90696 52.7577 1.87005 53.1159 1.76343C53.1159 8.08294 53.1159 14.2917 53.1159 20.5456C53.3341 20.5579 53.4947 20.5784 53.6553 20.5784C55.541 20.5784 57.4308 20.6236 59.3123 20.5538C59.8764 20.5333 60.4487 20.234 60.9798 19.9797C61.8897 19.545 62.7708 19.0447 63.7548 18.5239C63.7548 16.4119 63.7548 14.2425 63.7548 12.0526C65.1711 12.0526 66.501 12.0526 67.9049 12.0526C67.9049 13.4962 67.9049 14.9274 67.9049 16.4652C68.6007 16.1002 69.1977 15.7886 69.7906 15.4687C72.5038 14.0006 75.2171 12.5283 77.9262 11.052C80.5489 9.62489 83.1674 8.18137 85.7942 6.75835C87.7499 5.69621 89.7138 4.65458 91.6736 3.60064C92.637 3.07982 93.5922 2.5426 94.568 2.03819C94.8191 1.90696 95.1197 1.86595 95.4779 1.76343C95.4779 8.07884 95.4779 14.2876 95.4779 20.5456C95.7084 20.5579 95.8855 20.5743 96.0666 20.5784C97.5365 20.5825 99.0063 20.5579 100.472 20.5907C101.143 20.603 101.74 20.4923 102.333 20.1601C103.358 19.5901 104.42 19.0816 105.495 18.528C105.495 16.3709 105.495 14.2343 105.495 12.0608C106.87 12.0608 108.2 12.0608 109.588 12.0608C109.588 13.4798 109.588 14.9151 109.588 16.4652C110.04 16.2356 110.403 16.0592 110.757 15.8706C113.985 14.1277 117.208 12.3848 120.432 10.6337C123.03 9.223 125.616 7.79998 128.214 6.38926C130.618 5.08517 133.031 3.78928 135.439 2.48929C135.715 2.34166 135.983 2.16532 136.271 2.04639C136.547 1.93157 136.843 1.87415 137.202 1.76753C137.202 8.3536 137.202 14.8126 137.202 21.3125C136.905 21.3125 136.601 21.3125 136.152 21.3125C136.102 19.8485 136.135 18.368 136.131 16.8876C136.123 15.3908 136.131 13.8939 136.131 12.3971C136.131 10.9003 136.131 9.40344 136.131 7.9066C136.131 6.40977 136.131 4.91703 136.131 3.29307C126.929 8.27979 117.797 13.2296 108.583 18.2245C108.583 16.457 108.583 14.7879 108.583 13.082C107.908 13.082 107.286 13.082 106.603 13.082C106.603 13.6356 106.603 14.1769 106.603 14.7223C106.603 15.9854 106.59 17.2485 106.611 18.5116C106.619 18.9381 106.512 19.2087 106.096 19.4097C104.869 19.9961 103.667 20.6318 102.448 21.2387C102.321 21.3043 102.168 21.3453 102.024 21.3453C99.6033 21.3494 97.1824 21.3494 94.7615 21.3494C94.6791 21.3494 94.6009 21.333 94.4815 21.3166C94.4815 15.3416 94.4815 9.37883 94.4815 3.24796C85.226 8.26748 76.0735 13.2296 66.8386 18.2368C66.8386 16.4611 66.8386 14.792 66.8386 13.082C66.1633 13.082 65.5417 13.082 64.8664 13.082C64.8664 15.0832 64.8664 17.0845 64.8664 19.1349C64.0101 19.5737 63.1743 20.0043 62.3343 20.4308C62.2891 20.4554 62.2355 20.4595 62.1944 20.4882C61.0621 21.3412 59.7611 21.4068 58.4065 21.3658C56.5209 21.3125 54.6352 21.3535 52.7495 21.3535C52.5519 21.3535 52.3542 21.3535 52.1031 21.3535C52.1031 15.3457 52.1031 9.37473 52.1031 3.26436C42.8559 8.27569 33.7074 13.2378 24.4684 18.245C24.4684 16.4529 24.4684 14.7797 24.4684 13.0779C23.7932 13.0779 23.1674 13.0779 22.4963 13.0779C22.4963 15.0873 22.4963 17.0927 22.4963 19.0529C21.821 19.6516 18.1444 21.3658 17.6709 21.3002Z" fill="white"/>
<path d="M29.0098 30.1704C30.8296 34.3697 32.5959 38.446 34.4157 42.6412C36.2314 38.4501 38.0018 34.3697 39.8299 30.1458C41.9955 35.1448 44.0994 40.0126 46.2486 44.9788C45.8039 44.9788 45.4663 44.9788 45.1246 44.9788C44.7746 44.9788 44.4247 44.9788 44.0129 44.9788C43.5148 43.769 43.0166 42.551 42.5019 41.3043C40.6492 41.3043 38.7882 41.3043 36.8778 41.3043C36.3673 42.5223 35.8485 43.7608 35.3174 45.028C34.6669 45.028 33.9834 45.028 33.197 45.028C31.7972 41.575 30.3809 38.0892 28.9316 34.5091C27.4329 38.0728 25.9713 41.5422 24.5015 45.0403C23.8222 45.0403 23.1099 45.0403 22.3441 45.0403C20.936 41.5668 19.5197 38.081 18.0704 34.5009C16.5676 38.0769 15.1101 41.5504 13.6485 45.028C13.0227 45.028 12.4175 45.028 11.7217 45.028C13.8667 40.07 15.9871 35.1776 18.1569 30.1622C19.9767 34.3697 21.743 38.4501 23.5834 42.6987C25.4073 38.4747 27.1859 34.3779 29.0098 30.1704ZM39.7475 34.5132C39.0064 36.2684 38.3106 37.917 37.6024 39.5902C39.0311 39.5902 40.3857 39.5902 41.7938 39.5902C41.1144 37.9006 40.4557 36.2684 39.7475 34.5132Z" fill="#77B82A"/>
<path d="M139.861 44.9419C139.861 40.1356 139.861 35.358 139.861 30.5518C143.419 34.0785 146.951 37.5766 150.587 41.1772C150.587 37.6587 150.587 34.3 150.587 30.9085C151.208 30.9085 151.801 30.9085 152.439 30.9085C152.439 35.6902 152.439 40.4842 152.439 45.3766C148.903 41.9031 145.403 38.4706 141.908 35.0341C141.862 35.0546 141.821 35.0751 141.776 35.0956C141.776 38.3681 141.776 41.6406 141.776 44.9378C141.113 44.9419 140.516 44.9419 139.861 44.9419Z" fill="white"/>
<path d="M55.57 39.332C56.764 41.1897 57.9456 43.0228 59.1643 44.9215C58.4232 44.9215 57.7398 44.9215 56.9822 44.9215C55.8788 43.2525 54.7383 41.5301 53.5896 39.7995C52.7044 39.7995 51.8316 39.7995 50.9052 39.7995C50.9052 41.5137 50.9052 43.1991 50.9052 44.9297C50.2547 44.9297 49.6536 44.9297 49.0195 44.9297C49.0195 40.2588 49.0195 35.6001 49.0195 30.88C50.1476 30.88 51.2593 30.8431 52.3709 30.8923C53.1779 30.9292 53.9972 31.003 54.7836 31.1876C57.2375 31.7617 58.5673 34.1935 57.7809 36.5721C57.2828 38.0894 57.0769 38.3519 55.57 39.332ZM50.9464 32.6967C50.9464 34.4765 50.9464 36.2071 50.9464 37.9541C51.8563 37.9541 52.725 37.991 53.5896 37.9459C54.9771 37.8762 56.0023 36.7402 56.0023 35.3336C56.0023 33.9475 54.9401 32.7664 53.5896 32.7049C52.725 32.6639 51.8563 32.6967 50.9464 32.6967Z" fill="white"/>
<path d="M106.735 39.3115C107.941 41.1897 109.127 43.0351 110.349 44.9338C109.584 44.9338 108.892 44.9338 108.167 44.9338C107.039 43.2278 105.895 41.5054 104.762 39.7913C103.861 39.7913 102.996 39.7913 102.062 39.7913C102.062 41.5095 102.062 43.2114 102.062 44.9379C101.411 44.9379 100.835 44.9379 100.213 44.9379C100.213 40.2793 100.213 35.6165 100.213 30.9374C100.217 30.9333 100.242 30.8923 100.266 30.8923C101.917 30.9169 103.581 30.8061 105.211 31.0071C107.2 31.2531 108.628 32.2784 109.036 34.1894C109.419 35.9815 109.003 37.6178 107.509 38.8439C107.307 39.0121 107.056 39.1187 106.735 39.3115ZM102.103 37.954C103.033 37.954 103.902 37.991 104.767 37.9458C106.133 37.8761 107.117 36.8222 107.179 35.432C107.241 34.1197 106.302 32.8771 105.009 32.7418C104.058 32.6393 103.087 32.7213 102.099 32.7213C102.103 34.4642 102.103 36.1825 102.103 37.954Z" fill="white"/>
<path d="M95.7456 31.7985C95.5603 32.3152 95.3709 32.8402 95.2062 33.2954C94.2222 33.0657 93.2876 32.7499 92.3324 32.6515C90.3109 32.4424 88.4581 32.9222 87.1365 34.5707C86.1113 35.8543 85.8725 37.384 86.1113 38.9915C86.5189 41.7433 88.9687 43.3262 91.4266 43.2524C92.2913 43.2278 93.1641 43.2811 93.9834 42.9284C94.1358 42.8628 94.2799 42.789 94.4322 42.7152C94.4322 41.7761 94.4322 40.8657 94.4322 39.8896C93.4811 39.8896 92.5424 39.8896 91.579 39.8896C91.579 39.2663 91.579 38.7086 91.579 38.1057C93.1641 38.1057 94.7369 38.1057 96.3426 38.1057C96.3426 39.9922 96.3426 41.8622 96.3426 43.8224C95.8691 44.048 95.3668 44.3473 94.8275 44.536C92.6865 45.2823 90.5044 45.3972 88.3799 44.5524C86.2925 43.7199 84.8473 42.2395 84.308 39.9922C83.6863 37.3963 84.1886 35.0547 85.9672 33.037C87.153 31.6919 88.7216 31.0604 90.4632 30.7938C92.2707 30.5149 93.9587 30.9209 95.585 31.6755C95.6385 31.6919 95.6715 31.7329 95.7456 31.7985Z" fill="white"/>
<path d="M128.593 43.2032C131.187 43.2032 133.735 43.2032 136.321 43.2032C136.321 43.8019 136.321 44.3556 136.321 44.9379C133.093 44.9379 129.882 44.9379 126.646 44.9379C126.646 40.2669 126.646 35.6206 126.646 30.925C129.77 30.925 132.895 30.925 136.053 30.925C136.053 31.4951 136.053 32.0651 136.053 32.6802C133.562 32.6802 131.096 32.6802 128.597 32.6802C128.597 34.1238 128.597 35.5263 128.597 36.9862C130.816 36.9862 133.011 36.9862 135.23 36.9862C135.23 37.6013 135.23 38.1591 135.23 38.766C133.019 38.766 130.824 38.766 128.593 38.766C128.593 40.2546 128.593 41.69 128.593 43.2032Z" fill="white"/>
<path d="M122.03 36.9658C122.03 37.5973 122.03 38.1551 122.03 38.762C119.835 38.762 117.657 38.762 115.446 38.762C115.446 40.2506 115.446 41.686 115.446 43.191C117.983 43.191 120.527 43.191 123.104 43.191C123.104 43.8061 123.104 44.3598 123.104 44.9421C119.909 44.9421 116.731 44.9421 113.52 44.9421C113.52 40.2711 113.52 35.6084 113.52 30.9128C116.628 30.9128 119.737 30.9128 122.886 30.9128C122.886 31.4788 122.886 32.0365 122.886 32.6598C120.42 32.6598 117.95 32.6598 115.446 32.6598C115.446 34.1157 115.446 35.5059 115.446 36.9658C117.624 36.9658 119.815 36.9658 122.03 36.9658Z" fill="white"/>
<path d="M0.716309 43.6092C0.975693 43.1581 1.23508 42.7029 1.42859 42.3666C2.44554 42.7357 3.38838 43.154 4.36827 43.4082C5.57461 43.7199 6.72331 43.4902 7.66204 42.6044C8.40725 41.9032 8.39902 40.5581 7.68262 39.8076C6.96623 39.0613 5.99868 38.7783 5.0929 38.3682C4.19123 37.9581 3.19898 37.6136 2.47436 36.9821C0.502214 35.2679 1.25155 32.102 3.75481 31.1916C5.51285 30.5518 7.2215 30.7897 8.91778 31.4253C9.09071 31.491 9.25539 31.5648 9.4242 31.6386C9.58889 31.7124 9.75358 31.7944 9.98826 31.9052C9.75769 32.3727 9.53537 32.8238 9.32539 33.2544C8.50195 33.0083 7.72791 32.7786 6.95799 32.5449C6.12632 32.2947 5.31111 32.4014 4.51649 32.6925C3.8495 32.9345 3.45425 33.4266 3.35956 34.1237C3.26486 34.8004 3.47484 35.4114 4.06771 35.7641C4.77587 36.1865 5.52932 36.5351 6.28277 36.8755C7.31207 37.3389 8.40313 37.671 9.21834 38.5117C10.6305 39.9799 10.4864 42.5675 8.95484 43.9167C7.95848 44.7943 6.79331 45.0937 5.50874 45.1183C3.89479 45.147 2.42907 44.6631 1.04157 43.8798C0.967458 43.8388 0.9057 43.7855 0.839825 43.7322C0.790418 43.7076 0.765715 43.6625 0.716309 43.6092Z" fill="white"/>
<path d="M60.667 30.9045C63.8496 30.9045 67.0116 30.9045 70.2107 30.9045C70.2107 31.4746 70.2107 32.0405 70.2107 32.6638C68.9343 32.6638 67.6745 32.6638 66.3611 32.6638C66.3611 36.773 66.3611 40.8329 66.3611 44.9297C65.7023 44.9297 65.093 44.9297 64.4342 44.9297C64.4342 40.8698 64.4342 36.8099 64.4342 32.6966C63.1579 32.6966 61.931 32.6966 60.667 32.6966C60.667 32.0733 60.667 31.5074 60.667 30.9045Z" fill="white"/>
<path d="M78.2761 40.6073L78.9555 38.8685H78.3502L77.8809 40.0865L76.5675 38.3518C76.5593 38.3354 76.5387 38.2944 76.5016 38.237C76.4687 38.1796 76.4316 38.1058 76.3987 38.0197C76.3658 37.9335 76.3493 37.8515 76.3493 37.7695C76.3493 37.6014 76.4028 37.4578 76.514 37.3389C76.6251 37.22 76.7816 37.1585 76.9792 37.1585C77.111 37.1585 77.2427 37.1954 77.3786 37.2692C77.5103 37.343 77.6462 37.4455 77.7821 37.5727L78.1156 37.1339C77.9797 36.9944 77.8068 36.8714 77.5968 36.7689C77.3868 36.6664 77.148 36.613 76.8804 36.613C76.621 36.613 76.4028 36.6664 76.2258 36.7689C76.0446 36.8714 75.9087 37.0108 75.814 37.179C75.7193 37.3471 75.6699 37.5316 75.6699 37.7244C75.6699 37.8474 75.6905 37.9663 75.7276 38.0812C75.7646 38.196 75.814 38.3026 75.8676 38.3969C75.9211 38.4913 75.9705 38.5692 76.0117 38.6348L76.234 38.9301C76.1599 38.9465 76.0858 38.967 76.0117 38.9957C75.814 39.0736 75.637 39.1761 75.4723 39.3114C75.3076 39.4468 75.1841 39.6026 75.0894 39.783C74.9947 39.9635 74.9453 40.1603 74.9453 40.3736C74.9453 40.6483 75.0153 40.8944 75.1594 41.1117C75.3035 41.3291 75.497 41.5013 75.7399 41.6285C75.9829 41.7556 76.2628 41.8171 76.5716 41.8171C76.9422 41.8171 77.2592 41.7392 77.5145 41.5875C77.6956 41.4808 77.8397 41.3496 77.955 41.2061L78.3667 41.7515C78.4943 41.7515 78.6014 41.7515 78.6879 41.7515C78.7743 41.7515 78.8608 41.7515 78.9472 41.7515C79.0296 41.7515 79.0913 41.7515 79.1284 41.7515L78.2761 40.6073ZM77.4568 40.9313C77.3621 41.0174 77.2468 41.0871 77.1151 41.1405C76.9833 41.1938 76.831 41.2184 76.6581 41.2184C76.4728 41.2184 76.2999 41.1815 76.1434 41.1076C75.987 41.0338 75.8635 40.9313 75.7688 40.796C75.6741 40.6647 75.6288 40.5089 75.6288 40.3326C75.6288 40.2013 75.6576 40.0783 75.7152 39.9635C75.7729 39.8487 75.847 39.7461 75.9417 39.66C76.0364 39.5739 76.1475 39.5083 76.2669 39.455C76.3699 39.414 76.4769 39.3935 76.584 39.3853L77.6091 40.7345C77.5721 40.8042 77.5227 40.8698 77.4568 40.9313Z" fill="#77B82A"/>
</svg>
