<svg width="83" height="77" viewBox="0 0 83 77" fill="none" xmlns="http://www.w3.org/2000/svg">
<circle cx="55" cy="28" r="28" fill="#77B82A"/>
<g clip-path="url(#clip0_593:691)">
<path d="M43.3662 35.9375C43.3662 32.5257 40.629 29.75 37.2646 29.75H28.9443C28.3317 29.75 27.835 30.2538 27.835 30.875V41C27.835 41.6212 28.3317 42.125 28.9443 42.125H37.2646C40.629 42.125 43.3662 39.3493 43.3662 35.9375ZM30.0537 32H37.2646C39.4056 32 41.1475 33.7664 41.1475 35.9375C41.1475 38.1086 39.4056 39.875 37.2646 39.875H30.0537V32Z" fill="black"/>
<path d="M50.022 35.9375C50.022 28.8038 44.2988 23 37.2642 23H22.2876C21.675 23 21.1782 23.5038 21.1782 24.125V57.875C21.1782 58.4962 21.675 59 22.2876 59H28.9438C29.5564 59 30.0532 58.4962 30.0532 57.875V48.875H37.2642C44.2988 48.875 50.022 43.0712 50.022 35.9375ZM28.9438 46.625C28.3313 46.625 27.8345 47.1288 27.8345 47.75V56.75H23.397V25.25H37.2642C43.0754 25.25 47.8032 30.0444 47.8032 35.9375C47.8032 41.8306 43.0754 46.625 37.2642 46.625H28.9438Z" fill="black"/>
<path d="M35.5996 69.7999C36.2123 69.7999 36.709 69.2962 36.709 68.6749C36.709 68.0536 36.2123 67.5499 35.5996 67.5499C34.9869 67.5499 34.4902 68.0536 34.4902 68.6749C34.4902 69.2962 34.9869 69.7999 35.5996 69.7999Z" fill="black"/>
<path d="M59.5627 12.2H11.6377C9.19086 12.2 7.2002 14.2187 7.2002 16.7V65.2999C7.2002 67.7812 9.19086 69.7999 11.6377 69.7999H30.608C31.2206 69.7999 31.7174 69.2962 31.7174 68.6749C31.7174 68.0537 31.2206 67.5499 30.608 67.5499H11.6377C10.4143 67.5499 9.41895 66.5406 9.41895 65.2999V16.7C9.41895 15.4593 10.4143 14.45 11.6377 14.45H59.5627C60.7861 14.45 61.7814 15.4593 61.7814 16.7V65.2999C61.7814 66.5406 60.7861 67.5499 59.5627 67.5499H40.5924C39.9798 67.5499 39.483 68.0537 39.483 68.6749C39.483 69.2962 39.9798 69.7999 40.5924 69.7999H59.5627C62.0095 69.7999 64.0002 67.7812 64.0002 65.2999V16.7C64.0002 14.2187 62.0095 12.2 59.5627 12.2Z" fill="black"/>
</g>
<defs>
<clipPath id="clip0_593:691">
<rect width="56.8" height="57.6" fill="white" transform="translate(7.2002 12.2)"/>
</clipPath>
</defs>
</svg>
