<svg width="83" height="77" viewBox="0 0 83 77" fill="none" xmlns="http://www.w3.org/2000/svg">
<circle cx="55" cy="28" r="28" fill="#77B82A"/>
<path d="M63.9564 32.8335C64.4224 32.8335 64.8002 32.4559 64.8002 31.9898C64.8002 31.5237 64.4224 31.146 63.9564 31.146H60.2326V28.7915H63.9564C64.4224 28.7915 64.8002 28.4138 64.8002 27.9478C64.8002 27.4817 64.4224 27.104 63.9564 27.104H60.2326V26.6835C60.2326 24.6524 58.5802 23.0001 56.5491 23.0001C55.4075 23.0001 54.3855 23.5222 53.7094 24.34C53.0333 23.5221 52.0113 23 50.8697 23C49.728 23 48.7061 23.5221 48.0299 24.34C47.3538 23.5221 46.3319 23 45.1902 23C44.0486 23 43.0267 23.5221 42.3505 24.34C41.6744 23.5221 40.6524 23 39.5108 23C38.3691 23 37.3472 23.5221 36.671 24.34C35.9949 23.5221 34.973 23 33.8313 23C32.6897 23 31.6677 23.5221 30.9916 24.34C30.3155 23.5221 29.2935 23.0001 28.1519 23.0001C27.0102 23.0001 25.9883 23.5222 25.3121 24.3401C24.636 23.5222 23.6141 23.0001 22.4724 23.0001C20.4413 23.0001 18.7889 24.6525 18.7889 26.6835V27.1041H10.0649C8.48528 27.1041 7.2002 28.3892 7.2002 29.9688C7.2002 31.5484 8.48528 32.8335 10.0649 32.8335H12.357C12.8229 32.8335 13.2007 32.4559 13.2007 31.9898C13.2007 31.5237 12.8229 31.146 12.357 31.146H10.0649C9.41577 31.146 8.8877 30.6179 8.8877 29.9688C8.8877 29.3197 9.41577 28.7916 10.0649 28.7916H18.7887V31.146H16.0685C15.6025 31.146 15.2247 31.5237 15.2247 31.9898C15.2247 32.4559 15.6025 32.8335 16.0685 32.8335H18.7888V46.2831H15.8967C15.0175 45.097 13.608 44.3264 12.0215 44.3264C9.36301 44.3264 7.2002 46.4892 7.2002 49.1477C7.2002 50.7342 7.97071 52.1437 9.1568 53.0229V61.6994C9.1568 62.1655 9.53457 62.5432 10.0005 62.5432C10.4665 62.5432 10.8443 62.1655 10.8443 61.6994V53.8232C11.2213 53.9182 11.6155 53.9692 12.0215 53.9692C12.4275 53.9692 12.8218 53.9183 13.1987 53.8232V61.6994C13.1987 62.1655 13.5765 62.5432 14.0424 62.5432C14.5084 62.5432 14.8862 62.1655 14.8862 61.6994V53.0229C15.2707 52.7378 15.6115 52.397 15.8966 52.0125H18.7887V58.8596C18.7887 60.8907 20.4411 62.5431 22.4722 62.5431C23.6138 62.5431 24.6358 62.021 25.3119 61.2031C25.988 62.021 27.01 62.5431 28.1516 62.5431C29.2933 62.5431 30.3152 62.021 30.9914 61.2031C31.6675 62.021 32.6894 62.5431 33.8311 62.5431C34.9727 62.5431 35.9947 62.021 36.6708 61.2031C37.3469 62.021 38.3689 62.5431 39.5105 62.5431C40.6522 62.5431 41.6741 62.021 42.3503 61.2031C43.0264 62.021 44.0483 62.5431 45.19 62.5431C46.3316 62.5431 47.3535 62.021 48.0297 61.2031C48.7058 62.021 49.7278 62.5431 50.8694 62.5431C52.0111 62.5431 53.033 62.021 53.7092 61.2031C54.3853 62.021 55.4072 62.5431 56.5489 62.5431C58.58 62.5431 60.2324 60.8907 60.2324 58.8596V57.3024C60.2324 56.8363 59.8546 56.4586 59.3886 56.4586C58.9226 56.4586 58.5449 56.8363 58.5449 57.3024V58.8596C58.5449 59.9602 57.6495 60.8556 56.5489 60.8556C55.4483 60.8556 54.5529 59.9602 54.5529 58.8596V26.6835C54.5529 25.583 55.4483 24.6876 56.5489 24.6876C57.6495 24.6876 58.5449 25.583 58.5449 26.6835V53.591C58.5449 54.0571 58.9226 54.4348 59.3886 54.4348C59.8546 54.4348 60.2324 54.0571 60.2324 53.591V52.0126H63.9564C64.4224 52.0126 64.8002 51.635 64.8002 51.1689C64.8002 50.7028 64.4224 50.3251 63.9564 50.3251H60.2326V47.9706H63.9564C64.4224 47.9706 64.8002 47.593 64.8002 47.1269C64.8002 46.6608 64.4224 46.2831 63.9564 46.2831H60.2326V32.8335H63.9564ZM8.8877 49.1477C8.8877 47.4197 10.2936 46.0139 12.0215 46.0139C13.7494 46.0139 15.1553 47.4197 15.1553 49.1477C15.1553 50.8757 13.7495 52.2815 12.0215 52.2815C10.2935 52.2815 8.8877 50.8758 8.8877 49.1477ZM16.6969 50.325C16.7918 49.948 16.8429 49.5538 16.8429 49.1477C16.8429 48.7417 16.7919 48.3475 16.697 47.9705H18.7889V50.325H16.6969ZM28.1517 60.8557C27.0512 60.8557 26.1558 59.9603 26.1558 58.8597V37.2399C26.1558 36.7738 25.778 36.3962 25.312 36.3962C24.846 36.3962 24.4683 36.7738 24.4683 37.2399V58.8597C24.4683 59.9603 23.5729 60.8557 22.4723 60.8557C21.3717 60.8557 20.4763 59.9603 20.4763 58.8597V26.6835C20.4763 25.583 21.3717 24.6876 22.4723 24.6876C23.5729 24.6876 24.4683 25.583 24.4683 26.6835V33.5285C24.4683 33.9946 24.846 34.3723 25.312 34.3723C25.778 34.3723 26.1558 33.9946 26.1558 33.5285V26.6835C26.1558 25.583 27.0512 24.6876 28.1517 24.6876C29.2523 24.6876 30.1477 25.583 30.1477 26.6835V58.8597C30.1478 59.9603 29.2524 60.8557 28.1517 60.8557ZM33.8312 60.8557C32.7306 60.8557 31.8352 59.9603 31.8352 58.8597V26.6835C31.8352 25.5829 32.7306 24.6875 33.8312 24.6875C34.9318 24.6875 35.8272 25.5829 35.8272 26.6835V58.8597C35.8272 59.9603 34.9318 60.8557 33.8312 60.8557ZM39.5108 60.8557C38.4102 60.8557 37.5148 59.9603 37.5148 58.8597V26.6835C37.5148 25.5829 38.4102 24.6875 39.5108 24.6875C40.6113 24.6875 41.5067 25.5829 41.5067 26.6835V58.8597C41.5067 59.9603 40.6113 60.8557 39.5108 60.8557ZM45.1902 60.8557C44.0896 60.8557 43.1942 59.9603 43.1942 58.8597V26.6835C43.1942 25.5829 44.0896 24.6875 45.1902 24.6875C46.2908 24.6875 47.1862 25.5829 47.1862 26.6835V58.8597C47.1862 59.9603 46.2908 60.8557 45.1902 60.8557ZM50.8697 60.8557C49.7691 60.8557 48.8737 59.9603 48.8737 58.8597V26.6835C48.8737 25.5829 49.7691 24.6875 50.8697 24.6875C51.9702 24.6875 52.8656 25.5829 52.8656 26.6835V58.8597C52.8656 59.9603 51.9702 60.8557 50.8697 60.8557Z" fill="black"/>
<path d="M12.022 47.2529C11.556 47.2529 11.1782 47.6306 11.1782 48.0967V49.1479C11.1782 49.614 11.556 49.9916 12.022 49.9916C12.4879 49.9916 12.8657 49.614 12.8657 49.1479V48.0967C12.8657 47.6307 12.4881 47.2529 12.022 47.2529Z" fill="black"/>
</svg>
