<svg width="83" height="77" viewBox="0 0 83 77" fill="none" xmlns="http://www.w3.org/2000/svg">
<circle cx="55" cy="28" r="28" fill="#77B82A"/>
<g clip-path="url(#clip0_593:688)">
<path d="M63.84 12.2H8.1604C7.62998 12.2 7.2002 12.6297 7.2002 13.1602V44.8399C7.2002 45.3703 7.62998 45.8001 8.1604 45.8001H24.4804V68.8397C24.4804 69.3702 24.9102 69.7999 25.4401 69.7999H63.84C64.3704 69.7999 64.8002 69.3702 64.8002 68.8397V13.1602C64.8002 12.6297 64.3704 12.2 63.84 12.2V12.2ZM62.8802 67.88H26.4003V44.8399C26.4003 44.3099 25.9706 43.8801 25.4401 43.8801H9.12017V14.1199H62.8802V67.88Z" fill="black"/>
<path d="M12.0012 41.9602H25.441C25.9714 41.9602 26.4012 41.5299 26.4012 41V35.2401H28.3212V41C28.3212 41.5299 28.751 41.9602 29.281 41.9602H41.761V43.8801H29.281C28.751 43.8801 28.3212 44.3099 28.3212 44.8399V64.9998C28.3212 65.5302 28.751 65.96 29.281 65.96H43.6032C43.6396 65.9697 43.677 65.9772 43.7148 65.9824H43.7187L49.4193 65.96H60.0009C60.5313 65.96 60.9611 65.5302 60.9611 64.9998V44.8399C60.9611 44.3099 60.5313 43.8801 60.0009 43.8801H56.161V41.9602H60.0009C60.5313 41.9602 60.9611 41.5299 60.9611 41V17.0001C60.9611 16.4697 60.5313 16.0399 60.0009 16.0399H29.281C28.751 16.0399 28.3212 16.4697 28.3212 17.0001V20.8401H26.4012V17.0001C26.4012 16.4697 25.9714 16.0399 25.441 16.0399H12.0012C11.4708 16.0399 11.041 16.4697 11.041 17.0001V41C11.041 41.5299 11.4708 41.9602 12.0012 41.9602ZM30.2412 49.6401H34.0811V60.2001H30.2412V49.6401ZM44.6122 51.5561L54.2124 51.5178L54.248 59.221L49.4523 59.2399L44.6478 59.2592L44.6122 51.5561ZM50.4204 61.1564L54.2573 61.1414L54.27 64.0207L50.431 64.0361L50.4204 61.1564ZM44.6574 61.1788L48.5004 61.1638L48.511 64.04H44.6697L44.6574 61.1788ZM40.8012 21.7998H42.7212V25.6398H40.8012V21.7998ZM44.6412 21.7998H50.4011V24.68H44.6412V21.7998ZM52.321 21.7998H54.241V25.6398H52.321V21.7998ZM55.2012 17.9599V19.8799H39.841V17.9599H55.2012ZM24.4812 17.9599V21.7998C24.4812 22.3302 24.911 22.76 25.441 22.76H28.8195L36.2116 31.9995C36.5425 32.4135 37.1467 32.4812 37.5611 32.1498C37.9751 31.8189 38.0423 31.2147 37.7114 30.8003L30.2412 21.4628V17.9599H37.921V20.8401C37.921 21.37 38.3508 21.7998 38.8812 21.7998V26.6C38.8812 27.13 39.311 27.5602 39.841 27.5602H43.681C44.2114 27.5602 44.6412 27.13 44.6412 26.6H50.4011C50.4011 27.13 50.8309 27.5602 51.3613 27.5602H55.2012C55.7312 27.5602 56.161 27.13 56.161 26.6V21.7998C56.6914 21.7998 57.1212 21.37 57.1212 20.8401V17.9599H59.0412V40.0398H55.5036L46.1516 33.4932C45.7169 33.1984 45.1263 33.3069 44.8253 33.7371C44.5243 34.1674 44.6249 34.7597 45.0507 35.0665L54.241 41.4996V44.8399C54.241 45.3703 54.6708 45.8001 55.2012 45.8001H59.0412V64.04H56.1904L56.1724 60.1922C56.1724 60.1856 56.1759 60.1803 56.1759 60.1737C56.1759 60.1671 56.1724 60.1619 56.1724 60.1553L56.1271 50.5497C56.1245 50.0215 55.6956 49.5948 55.1674 49.5943H55.1634L43.6436 49.6401C43.3887 49.6409 43.1448 49.7433 42.9655 49.9239C42.7862 50.105 42.686 50.3498 42.6874 50.6047L42.7498 64.04H30.2412V62.1201H35.0409C35.5713 62.1201 36.0011 61.6903 36.0011 61.1599V48.6798C36.0011 48.1499 35.5713 47.7201 35.0409 47.7201H30.2412V45.8001H42.7212C43.2512 45.8001 43.681 45.3703 43.681 44.8399V41C43.681 40.47 43.2512 40.0398 42.7212 40.0398H30.2412V34.2799C30.2412 33.7499 29.8114 33.3201 29.281 33.3201H25.441C24.911 33.3201 24.4812 33.7499 24.4812 34.2799V40.0398H12.961V38.1198H17.7611C18.2911 38.1198 18.7209 37.69 18.7209 37.16V20.8401C18.7209 20.3096 18.2911 19.8799 17.7611 19.8799H12.961V17.9599H24.4812ZM12.961 21.7998H16.8009V36.1998H12.961V21.7998Z" fill="black"/>
</g>
<defs>
<clipPath id="clip0_593:688">
<rect width="57.6" height="57.6" fill="white" transform="translate(7.2002 12.2)"/>
</clipPath>
</defs>
</svg>
