<svg width="83" height="77" viewBox="0 0 83 77" fill="none" xmlns="http://www.w3.org/2000/svg">
<circle cx="55" cy="28" r="28" fill="#77B82A"/>
<path d="M53.8825 64.7031H51.3169V41.4379C51.3169 40.9718 50.9392 40.5941 50.4731 40.5941C50.0071 40.5941 49.6294 40.9718 49.6294 41.4379V64.7032H19.4967V54.733C19.4967 54.2669 19.1191 53.8892 18.653 53.8892C18.1869 53.8892 17.8092 54.2669 17.8092 54.733V64.7032H15.2437C14.7776 64.7032 14.3999 65.0809 14.3999 65.5469V68.9561C14.3999 69.4222 14.7776 69.7999 15.2437 69.7999H53.8823C54.3484 69.7999 54.7261 69.4222 54.7261 68.9561V65.5468C54.7262 65.0809 54.3484 64.7031 53.8825 64.7031ZM53.0387 68.1124H16.0874V66.3906H53.0386V68.1124H53.0387Z" fill="black"/>
<path d="M17.1311 25.8343C17.1316 25.8453 17.1325 25.8467 17.1373 25.8969L17.8098 30.3804V50.7949C17.8098 51.261 18.1875 51.6386 18.6535 51.6386C19.1196 51.6386 19.4973 51.261 19.4973 50.7949V31.1613H49.6299L49.6291 37.4999C49.629 37.9659 50.0067 38.3436 50.4727 38.3437H50.4728C50.9388 38.3437 51.3165 37.9661 51.3166 37.5001L51.3175 30.3805L51.99 25.8971C51.9927 25.8694 51.9963 25.8477 51.9993 25.772V13.0437C51.9993 12.5776 51.6217 12.2 51.1556 12.2H45.2201C44.754 12.2 44.3763 12.5776 44.3763 13.0437C44.3763 13.5098 44.754 13.8875 45.2201 13.8875H50.3118V24.9281H18.8154V13.8875H41.2813C41.7474 13.8875 42.1251 13.5098 42.1251 13.0437C42.1251 12.5776 41.7474 12.2 41.2813 12.2H17.9717C17.5056 12.2 17.1279 12.5776 17.1279 13.0437V25.7718C17.1289 25.7979 17.1284 25.7843 17.1311 25.8343ZM19.3801 29.4738L18.9513 26.6156H50.1756L49.7469 29.4738H19.3801Z" fill="black"/>
<path d="M31.4458 39.2954C31.4458 40.7244 32.8148 41.8438 34.5624 41.8438C36.31 41.8438 37.679 40.7244 37.679 39.2954C37.679 37.8664 36.31 36.7469 34.5624 36.7469C32.8148 36.7469 31.4458 37.8664 31.4458 39.2954ZM34.5624 38.4344C35.3804 38.4344 35.9915 38.8889 35.9915 39.2953C35.9915 39.7016 35.3804 40.1563 34.5624 40.1563C33.7444 40.1563 33.1333 39.7018 33.1333 39.2954C33.1333 38.8891 33.7444 38.4344 34.5624 38.4344Z" fill="black"/>
<path d="M34.5624 62.9815C36.31 62.9815 37.679 61.8621 37.679 60.4331C37.679 59.004 36.31 57.8846 34.5624 57.8846C32.8148 57.8846 31.4458 59.004 31.4458 60.4331C31.4458 61.862 32.8148 62.9815 34.5624 62.9815ZM34.5624 59.572C35.3804 59.572 35.9915 60.0266 35.9915 60.433C35.9915 60.8393 35.3803 61.2938 34.5624 61.2938C33.7445 61.2938 33.1333 60.8393 33.1333 60.433C33.1333 60.0266 33.7444 59.572 34.5624 59.572Z" fill="black"/>
<path d="M38.7759 47.7374C38.7758 47.7374 38.7758 47.7374 38.7759 47.7374C37.7655 46.7271 36.0059 46.9035 34.77 48.1391C33.5343 49.3749 33.3578 51.1344 34.3683 52.1449C34.8088 52.5854 35.3914 52.8002 36.0112 52.8002C36.8132 52.8002 37.6772 52.4402 38.3743 51.7432C39.6099 50.5074 39.7864 48.7479 38.7759 47.7374ZM37.7255 49.5377C37.6761 49.8843 37.4775 50.2532 37.1808 50.5499C36.8841 50.8467 36.5151 51.0452 36.1686 51.0947C36.0168 51.1164 35.7361 51.1266 35.5615 50.9517C35.3866 50.7769 35.3968 50.4963 35.4186 50.3447C35.4679 49.9981 35.6665 49.6292 35.9632 49.3325C36.3392 48.9567 36.7889 48.7784 37.1368 48.7784C37.3242 48.7784 37.482 48.8301 37.5827 48.9307C37.7576 49.1055 37.7473 49.3861 37.7255 49.5377Z" fill="black"/>
<path d="M21.5878 16.6601C20.3522 17.8958 20.1757 19.6553 21.1861 20.6659C21.6266 21.1063 22.2092 21.3211 22.829 21.3211C23.6309 21.3211 24.4949 20.9611 25.1919 20.264C26.4275 19.0283 26.6041 17.2687 25.5938 16.2583L25.5937 16.2581C24.5831 15.2477 22.8235 15.4245 21.5878 16.6601ZM23.9985 19.0708C23.4201 19.6495 22.6668 19.7597 22.3793 19.4726C22.0919 19.1852 22.2027 18.4316 22.7811 17.8532C23.1569 17.4773 23.6067 17.2989 23.9545 17.2989C24.142 17.2989 24.2997 17.3507 24.4004 17.4513C24.6877 17.7389 24.5769 18.4925 23.9985 19.0708Z" fill="black"/>
<path d="M23.7666 32.8831C22.3615 32.8831 21.2183 34.0263 21.2183 35.4314C21.2183 36.8365 22.3615 37.9798 23.7666 37.9798C25.1717 37.9798 26.315 36.8365 26.315 35.4314C26.315 34.0263 25.1717 32.8831 23.7666 32.8831ZM23.7666 36.2923C23.2919 36.2923 22.9058 35.906 22.9058 35.4314C22.9058 34.9568 23.292 34.5706 23.7666 34.5706C24.2412 34.5706 24.6275 34.9568 24.6275 35.4314C24.6275 35.906 24.2414 36.2923 23.7666 36.2923Z" fill="black"/>
<path d="M45.3594 51.1794C43.9543 51.1794 42.811 52.3227 42.811 53.7279C42.811 55.133 43.9543 56.2763 45.3594 56.2763C46.7645 56.2763 47.9077 55.133 47.9077 53.7279C47.9077 52.3227 46.7645 51.1794 45.3594 51.1794ZM45.3594 54.5889C44.8846 54.5889 44.4985 54.2027 44.4985 53.728C44.4985 53.2534 44.8847 52.8671 45.3594 52.8671C45.834 52.8671 46.2202 53.2534 46.2202 53.728C46.2202 54.2027 45.8341 54.5889 45.3594 54.5889Z" fill="black"/>
<path d="M32.0151 20.6577C32.0151 22.0628 33.1584 23.2061 34.5635 23.2061C35.9686 23.2061 37.1118 22.0628 37.1118 20.6577C37.1118 19.2526 35.9686 18.1093 34.5635 18.1093C33.1584 18.1093 32.0151 19.2525 32.0151 20.6577ZM35.4243 20.6577C35.4243 21.1325 35.0381 21.5186 34.5635 21.5186C34.0888 21.5186 33.7026 21.1324 33.7026 20.6577C33.7026 20.1831 34.0888 19.7969 34.5635 19.7969C35.0381 19.7969 35.4243 20.183 35.4243 20.6577Z" fill="black"/>
<path d="M45.3594 40.1562C43.9543 40.1562 42.811 41.2995 42.811 42.7046C42.811 44.1097 43.9543 45.2529 45.3594 45.2529C46.7645 45.2529 47.9077 44.1097 47.9077 42.7046C47.9077 41.2995 46.7645 40.1562 45.3594 40.1562ZM45.3594 43.5656C44.8846 43.5656 44.4985 43.1794 44.4985 42.7047C44.4985 42.2301 44.8847 41.8439 45.3594 41.8439C45.834 41.8439 46.2202 42.2301 46.2202 42.7047C46.2202 43.1794 45.8341 43.5656 45.3594 43.5656Z" fill="black"/>
<path d="M27.0625 52.6569C25.6574 52.6569 24.5142 53.8001 24.5142 55.2052C24.5142 56.6103 25.6574 57.7536 27.0625 57.7536C28.4676 57.7536 29.6109 56.6103 29.6109 55.2052C29.6109 53.8001 28.4676 52.6569 27.0625 52.6569ZM27.0625 56.0662C26.5878 56.0662 26.2017 55.68 26.2017 55.2053C26.2017 54.7307 26.5879 54.3445 27.0625 54.3445C27.5371 54.3445 27.9234 54.7307 27.9234 55.2053C27.9234 55.68 27.5373 56.0662 27.0625 56.0662Z" fill="black"/>
<path d="M44.791 32.8831C43.0433 32.8831 41.6743 34.0024 41.6743 35.4314C41.6743 36.8604 43.0433 37.9798 44.791 37.9798C46.5386 37.9798 47.9076 36.8604 47.9076 35.4314C47.9076 34.0024 46.5386 32.8831 44.791 32.8831ZM44.791 36.2923C43.973 36.2923 43.3618 35.8378 43.3618 35.4314C43.3618 35.0251 43.973 34.5706 44.791 34.5706C45.609 34.5706 46.2201 35.0251 46.2201 35.4314C46.2201 35.8378 45.609 36.2923 44.791 36.2923Z" fill="black"/>
<path d="M45.4725 20.706C47.2201 20.706 48.5891 19.5866 48.5891 18.1576C48.5891 16.7286 47.2201 15.6093 45.4725 15.6093C43.725 15.6093 42.356 16.7286 42.356 18.1576C42.356 19.5866 43.7249 20.706 45.4725 20.706ZM45.4725 17.2968C46.2905 17.2968 46.9016 17.7513 46.9016 18.1576C46.9016 18.564 46.2904 19.0185 45.4725 19.0185C44.6547 19.0185 44.0435 18.564 44.0435 18.1576C44.0435 17.7513 44.6546 17.2968 45.4725 17.2968Z" fill="black"/>
<path d="M29.7369 45.9011C29.6354 45.1904 29.2724 44.4919 28.7149 43.9344C27.4791 42.6989 25.7196 42.5221 24.7093 43.5326C24.2023 44.0395 23.9762 44.7826 24.0889 45.5717C24.1904 46.2823 24.5535 46.9808 25.1109 47.5384C25.6684 48.0958 26.367 48.4589 27.0776 48.5603C27.2109 48.5795 27.3426 48.5888 27.4724 48.5888C28.1107 48.5888 28.6954 48.3614 29.1166 47.9401L29.1167 47.94C29.6236 47.4333 29.8496 46.69 29.7369 45.9011ZM27.9235 46.7469C27.7485 46.9218 27.4678 46.9114 27.3165 46.8898C26.9698 46.8403 26.601 46.6418 26.3043 46.345C26.0075 46.0483 25.8091 45.6795 25.7595 45.3328C25.7379 45.1812 25.7276 44.9006 25.9024 44.7258C26.026 44.6021 26.2023 44.5711 26.3486 44.5711C26.4094 44.5711 26.4649 44.5765 26.5095 44.5828C26.8561 44.6322 27.225 44.8308 27.5217 45.1275C27.8184 45.4242 28.0169 45.7931 28.0665 46.1397C28.088 46.2915 28.0982 46.572 27.9235 46.7469Z" fill="black"/>
<path d="M22.062 62.9814H23.4257C23.8918 62.9814 24.2695 62.6038 24.2695 62.1377C24.2695 61.6716 23.8918 61.2939 23.4257 61.2939H22.062C21.5959 61.2939 21.2183 61.6716 21.2183 62.1377C21.2183 62.6038 21.5959 62.9814 22.062 62.9814Z" fill="black"/>
<path d="M45.4727 61.2939C45.0066 61.2939 44.6289 61.6716 44.6289 62.1377C44.6289 62.6038 45.0066 62.9814 45.4727 62.9814H47.0637C47.5298 62.9814 47.9075 62.6038 47.9075 62.1377C47.9075 61.6716 47.5298 61.2939 47.0637 61.2939H45.4727Z" fill="black"/>
<path d="M35.1311 34.5706C35.5972 34.5706 35.9749 34.1929 35.9749 33.7268C35.9749 33.2607 35.5972 32.8831 35.1311 32.8831H33.9946C33.5285 32.8831 33.1509 33.2607 33.1509 33.7268C33.1509 34.1929 33.5285 34.5706 33.9946 34.5706H35.1311Z" fill="black"/>
<path d="M40.5859 59.3447H41.7224C42.1885 59.3447 42.5662 58.9671 42.5662 58.501C42.5662 58.0349 42.1885 57.6572 41.7224 57.6572H40.5859C40.1199 57.6572 39.7422 58.0349 39.7422 58.501C39.7422 58.9671 40.1199 59.3447 40.5859 59.3447Z" fill="black"/>
<path d="M34.3835 45.2048C34.3835 44.7387 34.0059 44.3611 33.5398 44.3611H32.4033C31.9372 44.3611 31.5596 44.7387 31.5596 45.2048C31.5596 45.6709 31.9372 46.0486 32.4033 46.0486H33.5398C34.0059 46.0486 34.3835 45.6709 34.3835 45.2048Z" fill="black"/>
<path d="M34.1084 56.2765H35.6995C36.1656 56.2765 36.5432 55.8988 36.5432 55.4327C36.5432 54.9667 36.1656 54.589 35.6995 54.589H34.1084C33.6423 54.589 33.2646 54.9667 33.2646 55.4327C33.2646 55.8988 33.6423 56.2765 34.1084 56.2765Z" fill="black"/>
<path d="M47.0634 47.3158H45.6997C45.2336 47.3158 44.856 47.6935 44.856 48.1595C44.856 48.6256 45.2336 49.0033 45.6997 49.0033H47.0634C47.5295 49.0033 47.9072 48.6256 47.9072 48.1595C47.9072 47.6935 47.5295 47.3158 47.0634 47.3158Z" fill="black"/>
<path d="M40.7478 43.8411C40.7478 43.375 40.3702 42.9973 39.9041 42.9973H38.313C37.8469 42.9973 37.4692 43.375 37.4692 43.8411C37.4692 44.3072 37.8469 44.6848 38.313 44.6848H39.9041C40.3701 44.6848 40.7478 44.307 40.7478 43.8411Z" fill="black"/>
<path d="M40.2938 16.453C40.2938 15.9869 39.9161 15.6093 39.45 15.6093H38.0864C37.6203 15.6093 37.2427 15.9869 37.2427 16.453C37.2427 16.9191 37.6203 17.2968 38.0864 17.2968H39.45C39.916 17.2968 40.2938 16.919 40.2938 16.453Z" fill="black"/>
<path d="M31.8841 16.453C31.8841 15.9869 31.5065 15.6093 31.0404 15.6093H29.6768C29.2107 15.6093 28.833 15.9869 28.833 16.453C28.833 16.9191 29.2107 17.2968 29.6768 17.2968H31.0404C31.5063 17.2968 31.8841 16.919 31.8841 16.453Z" fill="black"/>
<path d="M25.082 40.0907C25.082 40.5568 25.4597 40.9344 25.9258 40.9344H27.5169C27.983 40.9344 28.3606 40.5568 28.3606 40.0907C28.3606 39.6246 27.983 39.2469 27.5169 39.2469H25.9258C25.4597 39.2469 25.082 39.6246 25.082 40.0907Z" fill="black"/>
<path d="M27.7451 21.5188C27.279 21.5188 26.9014 21.8965 26.9014 22.3625C26.9014 22.8286 27.279 23.2063 27.7451 23.2063H29.3361C29.8022 23.2063 30.1798 22.8286 30.1798 22.3625C30.1798 21.8965 29.8022 21.5188 29.3361 21.5188H27.7451Z" fill="black"/>
<path d="M39.79 23.2063H41.381C41.8471 23.2063 42.2248 22.8286 42.2248 22.3625C42.2248 21.8965 41.8471 21.5188 41.381 21.5188H39.79C39.324 21.5188 38.9463 21.8965 38.9463 22.3625C38.9463 22.8286 39.324 23.2063 39.79 23.2063Z" fill="black"/>
</svg>
