<svg width="83" height="77" viewBox="0 0 83 77" fill="none" xmlns="http://www.w3.org/2000/svg">
<circle cx="55" cy="28" r="28" fill="#77B82A"/>
<path d="M11.3424 63.0005V18.9996L8.62699 22.1403L6.79938 20.017L12.6353 13.2667L18.5327 20.0109L16.7155 22.1465L13.9301 18.9609V63.0392L16.7155 59.8536L18.5327 61.9889L12.6353 68.7334L6.79938 61.9831L8.62699 59.8595L11.3424 63.0005Z" fill="black"/>
<path d="M35.5991 46.3333H55.8658V26.0667H35.5991V46.3333ZM47.1664 28.9619H52.9979V34.7524H47.1664V28.9619ZM47.1664 37.6476H52.9979V43.4381H47.1664V37.6476ZM38.467 28.9619H44.2985V34.7524H38.467V28.9619ZM38.467 37.6476H44.2985V43.4381H38.467V37.6476Z" fill="black"/>
<path fill-rule="evenodd" clip-rule="evenodd" d="M61.6343 14.9428H29.8318V67.0571H61.6343V14.9428ZM27.0664 12.2V69.7999H64.3997V12.2H27.0664Z" fill="black"/>
<path fill-rule="evenodd" clip-rule="evenodd" d="M3.59967 12.2001L31.333 12.2001L31.333 13.2667L3.59967 13.2667L3.59967 12.2001Z" fill="black"/>
<path fill-rule="evenodd" clip-rule="evenodd" d="M3.59967 68.7333L31.333 68.7333L31.333 69.7999L3.59967 69.7999L3.59967 68.7333Z" fill="black"/>
</svg>
