<svg width="83" height="77" viewBox="0 0 83 77" fill="none" xmlns="http://www.w3.org/2000/svg">
<circle cx="55" cy="28" r="28" fill="#77B82A"/>
<g clip-path="url(#clip0_593:683)">
<path d="M22.4901 64.1802C22.1003 61.9232 20.1275 60.2001 17.7601 60.2001C15.8699 60.2001 14.2321 61.2983 13.4497 62.8899C13.2951 62.7796 13.13 62.6816 12.9601 62.5933V46.76C12.9601 46.2301 12.53 45.8 12.0001 45.8C11.4702 45.8 11.0402 46.2301 11.0402 46.76V62.12C8.92246 62.12 7.2002 63.8422 7.2002 65.9601C7.2002 68.0779 8.92246 69.8 11.0402 69.8H21.6002C23.188 69.8 24.4802 68.5078 24.4802 66.92C24.4802 65.6422 23.644 64.5565 22.4901 64.1802ZM21.6002 67.88H11.0402C9.98131 67.88 9.12012 67.0189 9.12012 65.9599C9.12012 64.901 9.98131 64.04 11.0402 64.04C11.9359 64.04 12.7317 64.5603 13.0206 65.336C13.1828 65.7709 13.6322 66.0272 14.091 65.9446C14.548 65.8621 14.8801 65.4646 14.8801 65C14.8801 63.4122 16.1723 62.12 17.7601 62.12C19.3479 62.12 20.6401 63.4122 20.6401 65C20.6401 65.5299 21.0702 65.9599 21.6001 65.9599C22.1291 65.9599 22.56 66.3909 22.56 66.9199C22.56 67.4489 22.1292 67.88 21.6002 67.88Z" fill="black"/>
<path d="M63.8402 19.88H45.6002C45.0703 19.88 44.6402 20.3101 44.6402 20.84C44.6402 21.3698 45.0703 21.7999 45.6002 21.7999H62.8801V42.5225L36.6789 16.3213C36.4907 16.1331 36.244 16.04 35.9973 16.04C35.7506 16.04 35.5038 16.1332 35.3156 16.3213L9.12023 42.5215V21.7999H19.6803C20.2101 21.7999 20.6402 21.3698 20.6402 20.84V17C20.6402 16.4701 20.2101 16.04 19.6803 16.04H18.7202V14.12H24.4802V16.04H23.5202C22.9904 16.04 22.5603 16.4701 22.5603 17V20.84C22.5603 21.3698 22.9904 21.7999 23.5202 21.7999H26.4002C26.9301 21.7999 27.3602 21.3698 27.3602 20.84C27.3602 20.3101 26.9301 19.88 26.4002 19.88H24.4802V17.96H25.4402C25.97 17.96 26.4001 17.5299 26.4001 17V13.1599C26.4001 12.63 25.97 12.2 25.4402 12.2H17.7602C17.2304 12.2 16.8003 12.63 16.8003 13.1599V16.9999C16.8003 17.5298 17.2304 17.9598 17.7602 17.9598H18.7202V19.8799H8.16016C7.9058 19.8799 7.661 19.9807 7.48145 20.1611C7.301 20.3408 7.2002 20.5856 7.2002 20.84L7.20402 44.8399C7.20402 45.2287 7.43825 45.5781 7.79735 45.727C7.91637 45.7759 8.04023 45.8 8.1641 45.8C8.41463 45.8 8.66045 45.7021 8.84281 45.5187L35.9973 18.3545L63.1614 45.5186C63.3448 45.702 63.5905 45.7999 63.8401 45.7999C63.964 45.7999 64.0887 45.7759 64.2078 45.7269C64.5658 45.578 64.8001 45.2277 64.8001 44.8398V20.84C64.8002 20.3101 64.3701 19.88 63.8402 19.88Z" fill="black"/>
<path d="M60.9598 62.12V46.76C60.9598 46.2301 60.5297 45.8 59.9998 45.8C59.4699 45.8 59.0399 46.2301 59.0399 46.76V62.5933C58.87 62.6816 58.7048 62.7795 58.5503 62.8899C57.7678 61.2983 56.13 60.2001 54.2398 60.2001C51.8725 60.2001 49.8997 61.9232 49.5099 64.1802C48.356 64.5565 47.5197 65.6423 47.5197 66.92C47.5197 67.2589 47.5888 67.5786 47.6974 67.88H31.1997C30.6698 67.88 30.2397 68.3101 30.2397 68.84C30.2397 69.3698 30.6698 69.7999 31.1997 69.7999H50.3997H54.2397H60.9597C63.0775 69.8 64.7997 68.0778 64.7997 65.9601C64.7997 63.8424 63.0775 62.12 60.9598 62.12ZM60.9598 67.88H54.2398H50.3997C49.8708 67.88 49.4398 67.449 49.4398 66.92C49.4398 66.3911 49.8708 65.9601 50.3997 65.9601C50.9296 65.9601 51.3597 65.53 51.3597 65.0001C51.3597 63.4123 52.6519 62.1201 54.2397 62.1201C55.8275 62.1201 57.1197 63.4123 57.1197 65.0001C57.1197 65.4647 57.4519 65.8622 57.9088 65.9448C58.3647 66.0282 58.817 65.771 58.9792 65.3361C59.2681 64.5605 60.0641 64.0401 60.9597 64.0401C62.0185 64.0401 62.8797 64.9012 62.8797 65.9602C62.8797 67.0191 62.0186 67.88 60.9598 67.88Z" fill="black"/>
<path d="M39.8396 31.4001C39.8396 29.2823 38.1173 27.5602 35.9996 27.5602C33.8818 27.5602 32.1597 29.2824 32.1597 31.4001C32.1597 33.5178 33.8818 35.2401 35.9996 35.2401C38.1174 35.2401 39.8396 33.5178 39.8396 31.4001ZM34.0796 31.4001C34.0796 30.3413 34.9407 29.4801 35.9996 29.4801C37.0585 29.4801 37.9197 30.3412 37.9197 31.4001C37.9197 32.459 37.0586 33.3202 35.9996 33.3202C34.9408 33.3201 34.0796 32.459 34.0796 31.4001Z" fill="black"/>
<path d="M54.2401 44.8398H46.5601C46.0302 44.8398 45.6001 45.2699 45.6001 45.7998V56.3598H44.6401C44.1103 56.3598 43.6802 56.7899 43.6802 57.3198C43.6802 57.8497 44.1103 58.2798 44.6401 58.2798H56.1601C56.69 58.2798 57.1201 57.8497 57.1201 57.3198C57.1201 56.7899 56.69 56.3598 56.1601 56.3598H55.2002V45.7998C55.2002 45.2699 54.7701 44.8398 54.2401 44.8398ZM53.2801 56.3598H47.5201V52.5199H53.2801V56.3598ZM53.2801 50.5998H47.5201V46.7599H53.2801V50.5998Z" fill="black"/>
<path d="M45.5992 64.9999C45.5992 64.47 45.1691 64.0399 44.6393 64.0399H41.7593V45.7999C41.7593 45.2701 41.3292 44.84 40.7993 44.84H31.1993C30.6695 44.84 30.2394 45.2701 30.2394 45.7999V64.0399H27.3594C26.8295 64.0399 26.3994 64.47 26.3994 64.9999V68.8398C26.3994 69.3697 26.8295 69.7998 27.3594 69.7998C27.8893 69.7998 28.3193 69.3697 28.3193 68.8398V65.9598H44.6393C45.1691 65.9599 45.5992 65.5299 45.5992 64.9999ZM39.8392 54.4399H38.8793C38.3494 54.4399 37.9193 54.87 37.9193 55.3999C37.9193 55.9298 38.3494 56.3599 38.8793 56.3599H39.8392V64.0399H32.1592V46.7599H39.8392V54.4399Z" fill="black"/>
<path d="M25.4403 44.8398H17.7604C17.2305 44.8398 16.8004 45.2699 16.8004 45.7998V56.3598H15.8403C15.3105 56.3598 14.8804 56.7899 14.8804 57.3198C14.8804 57.8497 15.3105 58.2799 15.8403 58.2799H27.3603C27.8902 58.2799 28.3203 57.8498 28.3203 57.3199C28.3203 56.79 27.8902 56.3599 27.3603 56.3599H26.4004V45.7999C26.4004 45.2699 25.9703 44.8398 25.4403 44.8398ZM24.4803 56.3598H18.7203V52.5199H24.4803V56.3598ZM24.4803 50.5998H18.7203V46.7599H24.4803V50.5998Z" fill="black"/>
</g>
<defs>
<clipPath id="clip0_593:683">
<rect width="57.6" height="57.6" fill="white" transform="translate(7.2002 12.2)"/>
</clipPath>
</defs>
</svg>
