<svg width="83" height="77" viewBox="0 0 83 77" fill="none" xmlns="http://www.w3.org/2000/svg">
<circle cx="55" cy="28" r="28" fill="#77B82A"/>
<path d="M60.6856 17.2454H59.5751V15.3939C59.5751 13.6328 58.1423 12.2 56.3812 12.2H38.7123C38.2463 12.2 37.8685 12.5776 37.8685 13.0437C37.8685 13.5098 38.2463 13.8875 38.7123 13.8875H56.3812C57.2118 13.8875 57.8876 14.5632 57.8876 15.3939V20.7842C57.8876 21.6149 57.2118 22.2906 56.3812 22.2906H29.4541C30.8003 21.9346 31.796 20.7034 31.796 19.243V13.8875H35.2871C35.7531 13.8875 36.1309 13.5098 36.1309 13.0437C36.1309 12.5776 35.7531 12.2 35.2871 12.2H30.9523H12.5609H11.5329C9.77167 12.2 8.33887 13.6328 8.33887 15.3939V20.7843C8.33887 22.5453 9.77167 23.9781 11.5327 23.9781H11.9373C12.3982 25.1451 13.534 25.9731 14.8597 25.9731C16.1854 25.9731 17.3212 25.1452 17.7821 23.9783H20.9127V25.8458C20.9127 27.5835 22.3225 28.9974 24.0553 28.9974C25.7882 28.9974 27.198 27.5837 27.198 25.8458V23.9783H56.3811C58.1422 23.9783 59.575 22.5455 59.575 20.7843V18.9329H60.6855C61.3953 18.9329 61.9728 19.514 61.9728 20.2285V28.0558C61.9728 28.687 61.4825 29.2116 60.8567 29.2501L35.8132 30.7905C34.2991 30.8836 33.1132 32.148 33.1132 33.6692V37.5688C33.1132 38.0349 33.4909 38.4126 33.9569 38.4126C34.4229 38.4126 34.8007 38.0349 34.8007 37.5688V33.6692C34.8007 33.038 35.2909 32.5134 35.9168 32.4749L60.9603 30.9346C62.4743 30.8414 63.6603 29.577 63.6603 28.0558V20.2284C63.6605 18.5835 62.3259 17.2454 60.6856 17.2454ZM11.7171 22.2905H11.5329C10.7022 22.2905 10.0264 21.6149 10.0264 20.7843V15.3939C10.0264 14.5632 10.7022 13.8875 11.5329 13.8875H11.7171V22.2905ZM20.91 22.2905H18.0053C18.035 21.5092 18.674 20.8824 19.4577 20.8824C20.2602 20.8824 20.9129 21.5393 20.9129 22.3467C20.9129 22.3278 20.9107 22.3093 20.91 22.2905ZM27.1981 22.2906V22.0359C27.4045 22.1445 27.6247 22.2299 27.8548 22.2906H27.1981ZM27.1981 19.2429C27.1981 18.7769 26.8204 18.3992 26.3544 18.3992C25.8884 18.3992 25.5106 18.7768 25.5106 19.2429V25.8454C25.5106 26.6528 24.8579 27.3096 24.0555 27.3096C23.2531 27.3096 22.6003 26.6528 22.6003 25.8454V22.3467C22.6003 20.6088 21.1904 19.1949 19.4576 19.1949C17.7247 19.1949 16.315 20.6088 16.315 22.3467V22.8213C16.315 23.6287 15.6622 24.2855 14.8598 24.2855C14.0575 24.2855 13.4046 23.6287 13.4046 22.8213V13.8875H30.1085V19.2429C30.1085 20.0503 29.4557 20.7071 28.6533 20.7071C27.851 20.7071 27.1981 20.0503 27.1981 19.2429Z" fill="black"/>
<path d="M38.4511 42.732H34.8003V41.019C34.8003 40.553 34.4225 40.1753 33.9565 40.1753C33.4906 40.1753 33.1128 40.553 33.1128 41.019V42.732H29.4619C28.6171 42.732 27.9297 43.4193 27.9297 44.2642V46.3316C27.9297 47.1765 28.6171 47.8639 29.4619 47.8639H30.0306V68.2021C30.0306 69.0832 30.7475 69.7999 31.6285 69.7999H36.2846C37.1657 69.7999 37.8824 69.0832 37.8824 68.2021V47.8639H38.4511C39.296 47.8639 39.9834 47.1765 39.9834 46.3316V44.2642C39.9834 43.4193 39.296 42.732 38.4511 42.732ZM36.1951 68.1124H31.7182V65.4691H36.1951V68.1124ZM36.1951 63.7816H31.7182V60.7257H36.1951V63.7816ZM36.1951 59.0382H31.7182V55.9823H36.1951V59.0382ZM36.1951 54.2948H31.7182V51.2389H36.1951V54.2948ZM36.1951 49.5514H31.7182V47.8639H36.1951V49.5514ZM38.296 46.1764H37.0388H30.8745H29.6174V44.4195H38.296V46.1764Z" fill="black"/>
</svg>
