<svg width="83" height="77" viewBox="0 0 83 77" fill="none" xmlns="http://www.w3.org/2000/svg">
<circle cx="55" cy="28" r="28" fill="#77B82A"/>
<g clip-path="url(#clip0_593:684)">
<path d="M8.1604 69.9113H54.2403C54.7707 69.9113 55.2005 69.4815 55.2005 68.9516V60.3114H61.9202C62.4506 60.3114 62.8804 59.8817 62.8804 59.3517V49.7514C62.8804 49.2214 62.4506 48.7916 61.9202 48.7916H55.2005V40.1515C55.2005 39.621 54.7707 39.1913 54.2403 39.1913H52.4785C52.6139 38.5637 52.4706 37.908 52.0861 37.3939L47.7482 31.6115L49.7513 30.109C50.6412 29.4428 51.1382 28.375 51.0753 27.2649L50.9791 25.5361C50.9527 25.0672 51.1628 24.6163 51.5385 24.3346L53.5411 22.8326L54.384 23.9558C54.5365 24.1593 54.7637 24.2942 55.0159 24.3302C55.0608 24.3364 55.106 24.3399 55.1517 24.3394C55.3596 24.3399 55.5617 24.2722 55.7278 24.1474L63.6486 18.2055C64.9204 17.2515 65.1783 15.4466 64.2243 14.1744L63.6908 13.4625C62.7354 12.192 60.9314 11.935 59.6588 12.8877L51.7389 18.8291C51.3148 19.1473 51.2287 19.7493 51.5469 20.1734L52.3893 21.2967L50.3867 22.7992C49.4968 23.4654 48.9994 24.5328 49.0626 25.6429L49.1584 27.3717C49.1852 27.8406 48.9752 28.2919 48.5995 28.5732L46.5969 30.0756L42.2586 24.2933C41.8046 23.6785 41.0672 23.3397 40.3047 23.3955C39.5774 23.4482 38.9275 23.8701 38.5825 24.513L30.6943 39.1913H8.1604C7.62998 39.1913 7.2002 39.621 7.2002 40.1515V49.7514C7.2002 50.2818 7.62998 50.7116 8.1604 50.7116H14.8801V58.3915H8.1604C7.62998 58.3915 7.2002 58.8213 7.2002 59.3517V68.9516C7.2002 69.4815 7.62998 69.9113 8.1604 69.9113ZM60.811 14.4232C61.2346 14.105 61.8363 14.1907 62.1549 14.6148L62.6884 15.3267C63.0061 15.7507 62.92 16.3519 62.4963 16.6701L55.3433 22.0363L53.658 19.7889L60.811 14.4232ZM24.4804 60.3114H37.9203V67.9914H24.4804V60.3114ZM32.1603 50.7116H45.6002V58.3915H32.1603V50.7116ZM53.2805 67.9914H39.8402V60.3114H53.2805V67.9914ZM60.9604 58.3915H47.5202V50.7116H60.9604V58.3915ZM53.2805 48.7916H39.8402V43.2013L49.6664 41.1112H53.2805V48.7916ZM40.2744 25.4227C40.3069 25.3555 40.3746 25.3124 40.4493 25.3102L40.4682 25.3093C40.5702 25.3111 40.6647 25.3616 40.7227 25.4451L45.0601 31.2275L41.0997 34.1986C40.6756 34.5168 40.5895 35.1184 40.9077 35.5429C41.2258 35.967 41.8275 36.0527 42.252 35.7349L46.2123 32.7638L50.5502 38.5461C50.6192 38.6305 50.6394 38.7443 50.6029 38.8467C50.5801 38.9179 50.5199 38.9702 50.446 38.9834L31.4005 43.0334C31.2823 43.0519 31.1637 43.0013 31.0955 42.9029C31.0191 42.8106 31.0037 42.6823 31.056 42.5742L40.2744 25.4227ZM29.5601 44.0551C30.0716 44.7587 30.9496 45.094 31.8 44.9112L37.9203 43.6095V48.7916H24.4804V41.1112H29.662L29.3645 41.6649C28.9532 42.4309 29.0301 43.3665 29.5601 44.0551ZM9.12017 44.9516H11.0401C11.5706 44.9516 12.0004 44.5218 12.0004 43.9914C12.0004 43.4614 11.5706 43.0317 11.0401 43.0317H9.12017V41.1112H22.5605V48.7916H9.12017V44.9516ZM16.8001 50.7116H30.2404V58.3915H16.8001V50.7116ZM9.12017 60.3114H22.5605V67.9914H9.12017V60.3114Z" fill="black"/>
<path d="M19.6803 43.9913C19.6803 43.4613 19.2506 43.0315 18.7201 43.0315H14.8802C14.3502 43.0315 13.9204 43.4613 13.9204 43.9913C13.9204 44.5217 14.3502 44.9515 14.8802 44.9515H18.7201C19.2506 44.9515 19.6803 44.5217 19.6803 43.9913Z" fill="black"/>
</g>
<defs>
<clipPath id="clip0_593:684">
<rect width="57.6" height="57.6" fill="white" transform="translate(7.2002 12.2)"/>
</clipPath>
</defs>
</svg>
