<svg width="83" height="77" viewBox="0 0 83 77" fill="none" xmlns="http://www.w3.org/2000/svg">
<circle cx="55" cy="28" r="28" fill="#77B82A"/>
<g clip-path="url(#clip0_593:687)">
<path d="M58.0503 25.7C54.3281 25.7 51.3003 22.6721 51.3003 18.95C51.3003 15.2278 54.3281 12.2 58.0503 12.2C61.7725 12.2 64.8003 15.2278 64.8003 18.95C64.8003 22.6721 61.7725 25.7 58.0503 25.7ZM58.0503 14.45C55.5691 14.45 53.5503 16.4688 53.5503 18.95C53.5503 21.4311 55.5691 23.45 58.0503 23.45C60.5314 23.45 62.5503 21.4311 62.5503 18.95C62.5503 16.4688 60.5314 14.45 58.0503 14.45Z" fill="black"/>
<path d="M37.3247 24.6189H8.3252C7.70381 24.6189 7.2002 24.1148 7.2002 23.4939C7.2002 19.6052 10.4227 16.449 14.3347 16.5686C15.9835 13.8554 18.8989 12.2 22.1148 12.2C24.7498 12.2 27.2617 13.3562 28.9834 15.328C29.5851 15.1786 30.2038 15.1034 30.8318 15.1034C35.0554 15.1034 38.4915 18.5395 38.4915 22.7626C38.4915 23.0408 38.4748 23.3287 38.4427 23.6183C38.379 24.1882 37.8978 24.6189 37.3247 24.6189ZM9.58686 22.3689H36.2269C36.0244 19.5691 33.6821 17.3534 30.8318 17.3534C30.1906 17.3534 29.5635 17.4642 28.9681 17.6826C28.4961 17.8562 27.9657 17.6944 27.6704 17.2875C26.381 15.5108 24.3041 14.45 22.1148 14.45C19.4965 14.45 17.1433 15.9076 15.9726 18.2539C15.7559 18.688 15.2848 18.9341 14.8049 18.8651C14.5782 18.8322 14.3505 18.8155 14.1286 18.8155C11.9366 18.8155 10.0918 20.3307 9.58686 22.3689Z" fill="black"/>
<path d="M57.5426 64.9175C57.4697 64.9175 57.3967 64.9096 57.3233 64.8947C57.2513 64.8815 57.1805 64.86 57.1133 64.8318C57.0456 64.8037 56.9801 64.769 56.9195 64.7286C56.8575 64.6868 56.8004 64.6394 56.7485 64.5879C56.6958 64.5361 56.6497 64.4785 56.6079 64.4166C56.5675 64.3559 56.5328 64.2909 56.5046 64.2232C56.4765 64.1546 56.455 64.0839 56.4405 64.0127C56.4255 63.9397 56.4189 63.8655 56.4189 63.7925C56.4189 63.7191 56.4255 63.6449 56.4405 63.5728C56.455 63.5012 56.4765 63.43 56.5046 63.3627C56.5328 63.2942 56.5675 63.2287 56.6079 63.1681C56.6483 63.1061 56.6958 63.049 56.7477 62.9971C56.7991 62.9453 56.8575 62.8978 56.9186 62.8574C56.9801 62.8169 57.0456 62.7822 57.1133 62.7541C57.1805 62.726 57.2513 62.7044 57.3233 62.6899C57.4684 62.6605 57.6182 62.6605 57.7632 62.6899C57.8353 62.7044 57.9061 62.726 57.9737 62.7541C58.0414 62.7822 58.1064 62.8169 58.1684 62.8574C58.2291 62.8978 58.2875 62.9453 58.3394 62.9971C58.3912 63.049 58.4382 63.1061 58.4787 63.1681C58.5195 63.2287 58.5542 63.2942 58.5824 63.3627C58.6105 63.4304 58.632 63.5012 58.6465 63.5728C58.661 63.6449 58.6689 63.7191 58.6689 63.7925C58.6689 63.8655 58.661 63.9397 58.6465 64.0127C58.632 64.0839 58.6105 64.1546 58.5824 64.2232C58.5542 64.2909 58.5195 64.3559 58.4787 64.4166C58.4382 64.4785 58.3912 64.5361 58.3394 64.5879C58.2875 64.6394 58.2291 64.6868 58.1684 64.7286C58.1064 64.769 58.0414 64.8037 57.9737 64.8318C57.9061 64.86 57.8353 64.8815 57.7632 64.8947C57.6903 64.9096 57.6169 64.9175 57.5426 64.9175Z" fill="black"/>
<path d="M63.6752 57.7858H61.5909V45.2557L61.9279 45.5031C62.1248 45.6476 62.3586 45.7215 62.5941 45.7215C62.7673 45.7215 62.9417 45.6815 63.1021 45.6002C63.4805 45.4086 63.7191 45.0206 63.7191 44.5965V38.4362C63.7191 38.0781 63.5486 37.7415 63.2599 37.5292L47.8751 26.2273C47.4787 25.9364 46.9391 25.9364 46.5427 26.2273L39.783 31.1932L36.6664 28.9036C36.27 28.6123 35.7304 28.6123 35.334 28.9036L32.2169 31.1932L25.4573 26.2273C25.0613 25.9364 24.5217 25.9364 24.1253 26.2273L8.74004 37.5296C8.45176 37.7415 8.28125 38.0781 8.28125 38.4362V44.5965C8.28125 45.0206 8.51987 45.409 8.89824 45.6002C9.05864 45.6815 9.23267 45.7215 9.40625 45.7215C9.64136 45.7215 9.87559 45.6481 10.072 45.5035L10.4095 45.2557V57.7858H8.3252C7.70381 57.7858 7.2002 58.2894 7.2002 58.9108V68.675C7.2002 69.2964 7.70381 69.8 8.3252 69.8H63.6752C64.2966 69.8 64.8002 69.2964 64.8002 68.675V58.9108C64.8002 58.2894 64.2966 57.7858 63.6752 57.7858ZM59.3409 43.6029L59.3413 57.7858H50.3826L50.3822 47.9315L50.7197 48.1793C50.7254 48.1837 50.7311 48.1877 50.7368 48.1921C50.739 48.1934 50.7408 48.1943 50.7425 48.1956C50.7465 48.1987 50.7504 48.2013 50.7548 48.2039C50.757 48.2057 50.7592 48.207 50.7614 48.2088C50.7649 48.211 50.7685 48.2136 50.7724 48.2158C50.7746 48.2176 50.7772 48.2193 50.7799 48.2206C50.7834 48.2233 50.7873 48.2255 50.7913 48.2281C50.7931 48.2294 50.7953 48.2308 50.7975 48.2316C50.8014 48.2343 50.8058 48.2369 50.8102 48.2395C50.812 48.2404 50.8142 48.2417 50.8159 48.2431C50.8212 48.2457 50.826 48.2488 50.8313 48.2518C50.8322 48.2523 50.8335 48.2532 50.8344 48.2536C50.8471 48.2606 50.8599 48.2677 50.873 48.2743C50.8739 48.2747 50.8744 48.2747 50.8752 48.2751C50.8805 48.2782 50.8862 48.2809 50.8919 48.2835C50.8933 48.2844 50.895 48.2852 50.8963 48.2857C50.9012 48.2883 50.9064 48.2905 50.9117 48.2927C50.913 48.2936 50.9144 48.294 50.9157 48.2949C50.9214 48.2971 50.9267 48.2997 50.9319 48.3024C50.9332 48.3028 50.9341 48.3033 50.935 48.3037C51.1934 48.4166 51.4865 48.4285 51.7546 48.3353C51.7555 48.3349 51.7555 48.3349 51.7559 48.3349C51.7752 48.3279 51.7941 48.3208 51.813 48.3129C51.8148 48.3121 51.8165 48.3116 51.8183 48.3107C51.8218 48.3094 51.8253 48.3081 51.8289 48.3063C51.8311 48.3055 51.8332 48.3046 51.8354 48.3037C51.8385 48.3024 51.8412 48.3011 51.8442 48.2997C51.8473 48.2984 51.8499 48.2971 51.853 48.2958C51.8557 48.2949 51.8583 48.2936 51.8609 48.2923C51.864 48.291 51.8675 48.2892 51.871 48.2874C51.8732 48.2866 51.875 48.2857 51.8772 48.2844C51.8829 48.2817 51.8882 48.2791 51.8935 48.2765C52.2718 48.0849 52.5104 47.6968 52.5104 47.2727V41.1121C52.5104 40.7539 52.3399 40.4173 52.0517 40.2055L45.8765 35.6694L47.2089 34.6908L59.3409 43.6029ZM38.5508 62.6677H33.4496V55.9568H38.5508V62.6677ZM39.6758 53.7068H32.3246C31.7037 53.7068 31.1996 54.2108 31.1996 54.8318V62.6677H23.8682V46.2787L36.0002 37.3666L48.1322 46.2787L48.1326 62.6677H40.8008V54.8318C40.8008 54.2108 40.2967 53.7068 39.6758 53.7068ZM47.2089 28.5301L61.4691 39.0058V42.3742L47.8751 32.3876C47.5099 32.1195 47.0226 32.0984 46.6385 32.3248C46.6055 32.3441 46.5739 32.3652 46.5431 32.3876L43.9763 34.2733L41.6836 32.5889L47.2089 28.5301ZM36.0002 31.2059L50.2604 41.6816V45.05L49.9234 44.8021L36.6664 35.0639C36.6352 35.041 36.6036 35.0199 36.571 35.001C36.219 34.7936 35.7813 34.7936 35.4298 35.001C35.3968 35.0204 35.3652 35.041 35.334 35.0639L22.077 44.8021L21.7399 45.05V41.6816L36.0002 31.2059ZM10.5312 39.0058L24.7915 28.5301L30.3167 32.5889L28.0241 34.2733L25.4573 32.388C25.0613 32.0967 24.5217 32.0967 24.1253 32.388L10.5312 42.3742V39.0058ZM12.6595 43.6029L24.7915 34.6903L26.1239 35.6694L19.9487 40.2055C19.9443 40.2085 19.9399 40.2121 19.9355 40.2151C19.704 40.3909 19.551 40.6471 19.5049 40.9297C19.5031 40.9407 19.5014 40.9517 19.5 40.9626C19.4987 40.9736 19.4974 40.9846 19.4961 40.9956C19.4921 41.0338 19.4899 41.0729 19.4899 41.1121V47.2727C19.4899 47.6968 19.7286 48.0849 20.1069 48.2765C20.1126 48.2791 20.1188 48.2822 20.1245 48.2852C20.2524 48.3468 20.3877 48.3828 20.5249 48.3938C20.7898 48.4153 21.0592 48.3424 21.2812 48.1793L21.6182 47.9315V57.7858H12.66L12.6595 43.6029ZM21.6182 60.0358V62.6677H9.4502V60.0358H21.6182ZM62.5502 67.55H9.4502V64.9177H52.9877C53.6091 64.9177 54.1127 64.4141 54.1127 63.7927C54.1127 63.1717 53.6091 62.6677 52.9877 62.6677H50.3826V60.0358H62.5502V67.55Z" fill="black"/>
<path d="M36.0011 51.3464C33.3169 51.3464 31.1328 49.1628 31.1328 46.4782C31.1328 43.794 33.3169 41.6104 36.0011 41.6104C38.6853 41.6104 40.8693 43.794 40.8693 46.4782C40.8693 49.1628 38.6853 51.3464 36.0011 51.3464ZM36.0011 43.8599C34.5575 43.8599 33.3828 45.0346 33.3828 46.4782C33.3828 47.9218 34.5575 49.0964 36.0011 49.0964C37.4447 49.0964 38.6193 47.9218 38.6193 46.4782C38.6193 45.0346 37.4447 43.8599 36.0011 43.8599Z" fill="black"/>
</g>
<defs>
<clipPath id="clip0_593:687">
<rect width="57.6" height="57.6" fill="white" transform="translate(7.2002 12.2)"/>
</clipPath>
</defs>
</svg>
